<svg width="204" height="35" viewBox="0 0 204 35" fill="none" xmlns="http://www.w3.org/2000/svg">
    <path d="M26.7444 0.543999L15.8484 21.376V34H11.4804V21.376L0.536374 0.543999H5.38437L13.6404 17.488L21.8964 0.543999H26.7444ZM53.2396 7.696V34H48.8716V30.112C48.0396 31.456 46.8716 32.512 45.3676 33.28C43.8956 34.016 42.2636 34.384 40.4716 34.384C38.4236 34.384 36.5836 33.968 34.9516 33.136C33.3196 32.272 32.0236 30.992 31.0636 29.296C30.1356 27.6 29.6716 25.536 29.6716 23.104V7.696H33.9916V22.528C33.9916 25.12 34.6476 27.12 35.9596 28.528C37.2716 29.904 39.0636 30.592 41.3356 30.592C43.6716 30.592 45.5116 29.872 46.8556 28.432C48.1996 26.992 48.8716 24.896 48.8716 22.144V7.696H53.2396ZM90.8068 7.216C92.8547 7.216 94.6787 7.648 96.2787 8.512C97.8787 9.344 99.1427 10.608 100.071 12.304C100.999 14 101.463 16.064 101.463 18.496V34H97.1427V19.12C97.1427 16.496 96.4867 14.496 95.1747 13.12C93.8948 11.712 92.1508 11.008 89.9428 11.008C87.6707 11.008 85.8627 11.744 84.5187 13.216C83.1747 14.656 82.5027 16.752 82.5027 19.504V34H78.1827V19.12C78.1827 16.496 77.5267 14.496 76.2147 13.12C74.9347 11.712 73.1907 11.008 70.9827 11.008C68.7107 11.008 66.9027 11.744 65.5587 13.216C64.2147 14.656 63.5427 16.752 63.5427 19.504V34H59.1747V7.696H63.5427V11.488C64.4067 10.112 65.5587 9.056 66.9987 8.32C68.4707 7.584 70.0867 7.216 71.8467 7.216C74.0547 7.216 76.0067 7.712 77.7027 8.704C79.3987 9.696 80.6628 11.152 81.4948 13.072C82.2307 11.216 83.4467 9.776 85.1427 8.752C86.8387 7.728 88.7267 7.216 90.8068 7.216ZM105.556 20.752C105.556 18.064 106.1 15.712 107.188 13.696C108.276 11.648 109.764 10.064 111.652 8.944C113.572 7.824 115.7 7.264 118.036 7.264C120.34 7.264 122.34 7.76 124.036 8.752C125.732 9.744 126.996 10.992 127.828 12.496V7.696H132.244V34H127.828V29.104C126.964 30.64 125.668 31.92 123.94 32.944C122.244 33.936 120.26 34.432 117.988 34.432C115.652 34.432 113.54 33.856 111.652 32.704C109.764 31.552 108.276 29.936 107.188 27.856C106.1 25.776 105.556 23.408 105.556 20.752ZM127.828 20.8C127.828 18.816 127.428 17.088 126.628 15.616C125.828 14.144 124.74 13.024 123.364 12.256C122.02 11.456 120.532 11.056 118.9 11.056C117.268 11.056 115.78 11.44 114.436 12.208C113.092 12.976 112.02 14.096 111.22 15.568C110.42 17.04 110.02 18.768 110.02 20.752C110.02 22.768 110.42 24.528 111.22 26.032C112.02 27.504 113.092 28.64 114.436 29.44C115.78 30.208 117.268 30.592 118.9 30.592C120.532 30.592 122.02 30.208 123.364 29.44C124.74 28.64 125.828 27.504 126.628 26.032C127.428 24.528 127.828 22.784 127.828 20.8ZM141.449 30.4H154.361V34H136.457V30.4L149.225 11.248H136.553V7.696H154.265V11.248L141.449 30.4ZM161.853 30.4H174.765V34H156.861V30.4L169.629 11.248H156.957V7.696H174.669V11.248L161.853 30.4ZM190.465 34.432C188.001 34.432 185.761 33.872 183.745 32.752C181.761 31.632 180.193 30.048 179.041 28C177.921 25.92 177.361 23.52 177.361 20.8C177.361 18.112 177.937 15.744 179.089 13.696C180.273 11.616 181.873 10.032 183.889 8.944C185.905 7.824 188.161 7.264 190.657 7.264C193.153 7.264 195.409 7.824 197.425 8.944C199.441 10.032 201.025 11.6 202.177 13.648C203.361 15.696 203.953 18.08 203.953 20.8C203.953 23.52 203.345 25.92 202.129 28C200.945 30.048 199.329 31.632 197.281 32.752C195.233 33.872 192.961 34.432 190.465 34.432ZM190.465 30.592C192.033 30.592 193.505 30.224 194.881 29.488C196.257 28.752 197.361 27.648 198.193 26.176C199.057 24.704 199.489 22.912 199.489 20.8C199.489 18.688 199.073 16.896 198.241 15.424C197.409 13.952 196.321 12.864 194.977 12.16C193.633 11.424 192.177 11.056 190.609 11.056C189.009 11.056 187.537 11.424 186.193 12.16C184.881 12.864 183.825 13.952 183.025 15.424C182.225 16.896 181.825 18.688 181.825 20.8C181.825 22.944 182.209 24.752 182.977 26.224C183.777 27.696 184.833 28.8 186.145 29.536C187.457 30.24 188.897 30.592 190.465 30.592Z" fill="white"/>
</svg>
